<svg width="31" height="29" viewBox="0 0 31 29" fill="none" xmlns="http://www.w3.org/2000/svg">
<path d="M2.91128 12.6582H29.0262C29.3725 12.6582 29.7047 12.8064 29.9495 13.0701C30.1944 13.3338 30.332 13.6915 30.332 14.0645C30.332 14.4374 30.1944 14.7951 29.9495 15.0588C29.7047 15.3225 29.3725 15.4707 29.0262 15.4707H2.91128C2.56497 15.4707 2.23285 15.3225 1.98797 15.0588C1.7431 14.7951 1.60553 14.4374 1.60553 14.0645C1.60553 13.6915 1.7431 13.3338 1.98797 13.0701C2.23285 12.8064 2.56497 12.6582 2.91128 12.6582Z" fill="white"/>
<path d="M3.45183 14.0643L14.2817 25.7249C14.5269 25.989 14.6646 26.3471 14.6646 26.7205C14.6646 27.094 14.5269 27.4521 14.2817 27.7162C14.0365 27.9802 13.704 28.1286 13.3572 28.1286C13.0105 28.1286 12.678 27.9802 12.4328 27.7162L0.681037 15.0599C0.559437 14.9293 0.462961 14.7741 0.397135 14.6032C0.331308 14.4324 0.297424 14.2492 0.297424 14.0643C0.297424 13.8793 0.331308 13.6962 0.397135 13.5253C0.462961 13.3545 0.559437 13.1993 0.681037 13.0687L12.4328 0.412401C12.678 0.148345 13.0105 0 13.3572 0C13.704 0 14.0365 0.148345 14.2817 0.412401C14.5269 0.676457 14.6646 1.03459 14.6646 1.40803C14.6646 1.78146 14.5269 2.1396 14.2817 2.40365L3.45183 14.0643Z" fill="white"/>
</svg>
