<svg width="193" height="187" viewBox="0 0 193 187" fill="none" xmlns="http://www.w3.org/2000/svg">
<path d="M193 0H0V186.173H193V0Z" fill="#6EBEFF"/>
<path d="M81.3529 62.8477H5.87769V186.172H81.3529V62.8477Z" fill="white"/>
<path d="M41.8256 66.6367H9.66602V186.173H41.8256V66.6367Z" fill="#1E4554"/>
<path d="M77.7728 66.6367H45.6133V186.173H77.7728V66.6367Z" fill="#1E4554"/>
<path d="M187.666 62.8477H85.4106V177.007H187.666V62.8477Z" fill="white"/>
<path d="M134.645 66.6367H88.657V173.491H134.645V66.6367Z" fill="#1E4554"/>
<path d="M184.42 66.6367H138.432V173.491H184.42V66.6367Z" fill="#1E4554"/>
<path opacity="0.2" d="M133.257 99.748V172.238H91.7891C91.7891 172.238 128.177 160.596 133.257 99.748Z" fill="#FCFAFA"/>
<path opacity="0.2" d="M75.5471 133.664V184.14H46.6716C46.6716 184.14 72.0098 176.035 75.5471 133.664Z" fill="#FCFAFA"/>
<path opacity="0.2" d="M39.8389 133.664V184.14H10.9634C10.9634 184.14 36.3016 176.035 39.8389 133.664Z" fill="#FCFAFA"/>
<path opacity="0.2" d="M183.032 99.748V172.238H141.564C141.564 172.238 177.952 160.596 183.032 99.748Z" fill="#FCFAFA"/>
<path d="M37.4972 127.502H34.792V137.241H37.4972V127.502Z" fill="white"/>
<path d="M52.6461 127.502H49.9409V137.241H52.6461V127.502Z" fill="white"/>
<path d="M134.645 66.6387H88.657V144.006H134.645V66.6387Z" fill="#839BAA"/>
<path d="M184.42 66.6367H138.432V144.004H184.42V66.6367Z" fill="#839BAA"/>
<path d="M134.645 66.6367H88.657V68.2598H134.645V66.6367Z" fill="#1E4554" fill-opacity="0.76"/>
<path d="M184.42 66.6367H138.432V68.2598H184.42V66.6367Z" fill="#1E4554" fill-opacity="0.76"/>
<path d="M134.645 70.4805H88.657V72.1036H134.645V70.4805Z" fill="#1E4554" fill-opacity="0.76"/>
<path d="M184.42 70.4805H138.432V72.1036H184.42V70.4805Z" fill="#1E4554" fill-opacity="0.76"/>
<path d="M134.645 74.3242H88.657V75.9473H134.645V74.3242Z" fill="#1E4554" fill-opacity="0.76"/>
<path d="M184.42 74.3242H138.432V75.9473H184.42V74.3242Z" fill="#1E4554" fill-opacity="0.76"/>
<path d="M134.645 78.1699H88.657V79.793H134.645V78.1699Z" fill="#1E4554" fill-opacity="0.76"/>
<path d="M184.42 78.1699H138.432V79.793H184.42V78.1699Z" fill="#1E4554" fill-opacity="0.76"/>
<path d="M134.645 82.0137H88.657V83.6368H134.645V82.0137Z" fill="#1E4554" fill-opacity="0.76"/>
<path d="M184.42 82.0137H138.432V83.6368H184.42V82.0137Z" fill="#1E4554" fill-opacity="0.76"/>
<path d="M134.645 85.8574H88.657V87.4805H134.645V85.8574Z" fill="#1E4554" fill-opacity="0.76"/>
<path d="M184.42 85.8574H138.432V87.4805H184.42V85.8574Z" fill="#1E4554" fill-opacity="0.76"/>
<path d="M134.645 89.7031H88.657V91.3262H134.645V89.7031Z" fill="#1E4554" fill-opacity="0.76"/>
<path d="M184.42 89.7031H138.432V91.3262H184.42V89.7031Z" fill="#1E4554" fill-opacity="0.76"/>
<path d="M134.645 93.5469H88.657V95.17H134.645V93.5469Z" fill="#1E4554" fill-opacity="0.76"/>
<path d="M184.42 93.5469H138.432V95.17H184.42V93.5469Z" fill="#1E4554" fill-opacity="0.76"/>
<path d="M134.645 97.3906H88.657V99.0137H134.645V97.3906Z" fill="#1E4554" fill-opacity="0.76"/>
<path d="M184.42 97.3906H138.432V99.0137H184.42V97.3906Z" fill="#1E4554" fill-opacity="0.76"/>
<path d="M134.645 101.234H88.657V102.857H134.645V101.234Z" fill="#1E4554" fill-opacity="0.76"/>
<path d="M184.42 101.234H138.432V102.857H184.42V101.234Z" fill="#1E4554" fill-opacity="0.76"/>
<path d="M134.645 108.924H88.657V110.547H134.645V108.924Z" fill="#1E4554" fill-opacity="0.76"/>
<path d="M184.42 108.924H138.432V110.547H184.42V108.924Z" fill="#1E4554" fill-opacity="0.76"/>
<path d="M134.645 116.611H88.657V118.234H134.645V116.611Z" fill="#1E4554" fill-opacity="0.76"/>
<path d="M184.42 116.611H138.432V118.234H184.42V116.611Z" fill="#1E4554" fill-opacity="0.76"/>
<path d="M134.645 124.299H88.657V125.922H134.645V124.299Z" fill="#1E4554" fill-opacity="0.76"/>
<path d="M184.42 124.299H138.432V125.922H184.42V124.299Z" fill="#1E4554" fill-opacity="0.76"/>
<path d="M134.645 105.08H88.657V106.703H134.645V105.08Z" fill="#1E4554" fill-opacity="0.76"/>
<path d="M184.42 105.08H138.432V106.703H184.42V105.08Z" fill="#1E4554" fill-opacity="0.76"/>
<path d="M134.645 112.768H88.657V114.391H134.645V112.768Z" fill="#1E4554" fill-opacity="0.76"/>
<path d="M184.42 112.768H138.432V114.391H184.42V112.768Z" fill="#1E4554" fill-opacity="0.76"/>
<path d="M134.645 120.455H88.657V122.078H134.645V120.455Z" fill="#1E4554" fill-opacity="0.76"/>
<path d="M184.42 120.455H138.432V122.078H184.42V120.455Z" fill="#1E4554" fill-opacity="0.76"/>
<path d="M134.645 128.143H88.657V129.766H134.645V128.143Z" fill="#1E4554" fill-opacity="0.76"/>
<path d="M184.42 128.143H138.432V129.766H184.42V128.143Z" fill="#1E4554" fill-opacity="0.76"/>
<path d="M134.645 131.988H88.657V133.611H134.645V131.988Z" fill="#1E4554" fill-opacity="0.76"/>
<path d="M184.42 131.988H138.432V133.611H184.42V131.988Z" fill="#1E4554" fill-opacity="0.76"/>
<path d="M134.645 135.832H88.657V137.455H134.645V135.832Z" fill="#1E4554" fill-opacity="0.76"/>
<path d="M184.42 135.832H138.432V137.455H184.42V135.832Z" fill="#1E4554" fill-opacity="0.76"/>
<path d="M134.645 139.676H88.657V141.299H134.645V139.676Z" fill="#1E4554" fill-opacity="0.76"/>
<path d="M184.42 139.676H138.432V141.299H184.42V139.676Z" fill="#1E4554" fill-opacity="0.76"/>
<path d="M187.666 6.49219H5.87769V58.5217H187.666V6.49219Z" fill="white"/>
<path d="M160.704 12.2637C149.349 12.2637 140.145 21.4683 140.145 32.8229C140.145 44.1776 149.349 53.3822 160.704 53.3822C172.059 53.3822 181.263 44.1776 181.263 32.8229C181.263 21.4683 172.059 12.2637 160.704 12.2637ZM165.574 37.6922V49.2341H155.835V37.6922H144.293V27.9536H155.835V16.4118H165.574V27.9536H177.116V37.6922H165.574Z" fill="#F93030"/>
<path d="M36.4125 21.3719V22.7023C36.4125 23.7238 36.1636 24.2345 35.6664 24.2345C35.4916 24.2345 35.2368 24.1474 34.9003 23.9727C33.3822 23.18 32.2833 22.6758 31.6049 22.461C30.9253 22.2462 30.0754 22.1386 29.0544 22.1386C25.7888 22.1386 23.168 23.3954 21.1927 25.9079C19.6605 27.8432 18.8949 30.0739 18.8949 32.6005C18.8949 35.745 20.01 38.3122 22.2412 40.301C24.1765 42.0215 26.4142 42.8812 28.9538 42.8812C30.0824 42.8812 31.0974 42.7303 31.9982 42.4278C32.8985 42.1254 33.9059 41.5984 35.022 40.8453C35.2909 40.6706 35.5057 40.5835 35.6664 40.5835C36.1636 40.5835 36.4125 41.1012 36.4125 42.1357V43.6073C36.4125 44.2793 36.3183 44.7029 36.1301 44.8771C35.8612 45.106 35.2298 45.4149 34.2354 45.8044C32.569 46.4629 30.802 46.7924 28.9343 46.7924C26.4613 46.7924 24.17 46.2145 22.06 45.0589C19.5198 43.6614 17.578 41.652 16.2341 39.0318C15.2132 37.0159 14.7019 34.8858 14.7019 32.6416C14.7019 30.2903 15.2592 28.0526 16.3753 25.929C17.6787 23.4565 19.5128 21.5348 21.8787 20.1638C24.1094 18.874 26.5689 18.2285 29.2568 18.2285C31.6757 18.2285 33.8052 18.7528 35.6464 19.8008C36.0224 20.0161 36.2437 20.1935 36.3113 20.3348C36.3789 20.4749 36.4125 20.8211 36.4125 21.3719Z" fill="#1E4554"/>
<path d="M45.7865 42.3547H52.3578C53.0163 42.3547 53.4329 42.4424 53.6076 42.6166C53.7824 42.7913 53.87 43.2079 53.87 43.8664V44.7531C53.87 45.4116 53.7818 45.8287 53.6076 46.0029C53.4329 46.1777 53.0163 46.2648 52.3578 46.2648H43.1457C42.4872 46.2648 42.0706 46.1777 41.8959 46.0029C41.7211 45.8287 41.634 45.4116 41.634 44.7531V20.2616C41.634 19.6032 41.7211 19.1866 41.8959 19.0119C42.0706 18.8376 42.4872 18.75 43.1457 18.75H44.2748C44.9333 18.75 45.3498 18.8376 45.5251 19.0119C45.6988 19.1866 45.787 19.6032 45.787 20.2616L45.7865 42.3547Z" fill="#1E4554"/>
<path d="M61.973 20.2616V44.7537C61.973 45.4121 61.8848 45.8292 61.7112 46.0035C61.5359 46.1782 61.1193 46.2653 60.4608 46.2653H59.3317C58.6733 46.2653 58.2567 46.1782 58.0819 46.0035C57.9072 45.8292 57.8201 45.4121 57.8201 44.7537V20.2616C57.8201 19.6032 57.9072 19.1866 58.0819 19.0119C58.2567 18.8376 58.6733 18.75 59.3317 18.75H60.4608C61.1193 18.75 61.5359 18.8376 61.7112 19.0119C61.8854 19.1866 61.973 19.6032 61.973 20.2616Z" fill="#1E4554"/>
<path d="M88.6416 37.8607V20.2625C88.6416 19.604 88.7288 19.1874 88.9035 19.0127C89.0783 18.8385 89.4949 18.7508 90.1538 18.7508H91.283C91.9414 18.7508 92.358 18.8385 92.5328 19.0127C92.7075 19.1874 92.7946 19.604 92.7946 20.2625V45.0975C92.7946 45.6618 92.727 46.0551 92.5934 46.2764C92.4581 46.4982 92.2238 46.6092 91.8873 46.6092C91.6319 46.6092 91.2759 46.3738 90.8193 45.9036L72.7374 26.9951V44.7545C72.7374 45.4129 72.6493 45.8301 72.4756 46.0043C72.3003 46.179 71.8837 46.2661 71.2253 46.2661H70.0961C69.4377 46.2661 69.0211 46.179 68.8463 46.0043C68.6716 45.8301 68.5845 45.4129 68.5845 44.7545V19.7588C68.5845 19.1809 68.6516 18.7811 68.7857 18.5593C68.9199 18.3375 69.1553 18.2266 69.4918 18.2266C69.7471 18.2266 70.1032 18.4684 70.5598 18.9521L88.6416 37.8607Z" fill="#1E4554"/>
<path d="M103.559 20.2616V44.7537C103.559 45.4121 103.471 45.8292 103.297 46.0035C103.122 46.1782 102.705 46.2653 102.047 46.2653H100.918C100.259 46.2653 99.8426 46.1782 99.6679 46.0035C99.4931 45.8292 99.406 45.4121 99.406 44.7537V20.2616C99.406 19.6032 99.4931 19.1866 99.6679 19.0119C99.8426 18.8376 100.259 18.75 100.918 18.75H102.047C102.705 18.75 103.122 18.8376 103.297 19.0119C103.471 19.1866 103.559 19.6032 103.559 20.2616Z" fill="#1E4554"/>
<path d="M130.511 21.3719V22.7023C130.511 23.7238 130.262 24.2345 129.765 24.2345C129.59 24.2345 129.335 24.1474 128.998 23.9727C127.48 23.18 126.381 22.6758 125.703 22.461C125.023 22.2462 124.174 22.1386 123.153 22.1386C119.887 22.1386 117.266 23.3954 115.291 25.9079C113.759 27.8432 112.993 30.0739 112.993 32.6005C112.993 35.745 114.108 38.3122 116.339 40.301C118.275 42.0215 120.512 42.8812 123.052 42.8812C124.181 42.8812 125.196 42.7303 126.096 42.4278C126.997 42.1254 128.004 41.5984 129.12 40.8453C129.389 40.6706 129.604 40.5835 129.765 40.5835C130.262 40.5835 130.511 41.1012 130.511 42.1357V43.6073C130.511 44.2793 130.416 44.7029 130.228 44.8771C129.959 45.106 129.328 45.4149 128.334 45.8044C126.667 46.4629 124.9 46.7924 123.032 46.7924C120.559 46.7924 118.268 46.2145 116.158 45.0589C113.618 43.6614 111.676 41.652 110.332 39.0318C109.311 37.0159 108.8 34.8858 108.8 32.6416C108.8 30.2903 109.357 28.0526 110.473 25.929C111.777 23.4565 113.611 21.5348 115.977 20.1638C118.208 18.874 120.667 18.2285 123.355 18.2285C125.774 18.2285 127.903 18.7528 129.745 19.8008C130.121 20.0161 130.342 20.1935 130.409 20.3348C130.477 20.4749 130.511 20.8211 130.511 21.3719Z" fill="#1E4554"/>
</svg>
