<svg width="69" height="69" viewBox="0 0 69 69" fill="none" xmlns="http://www.w3.org/2000/svg">
<path d="M66.0228 28.8319L36.7063 2.734C35.4033 1.75533 33.7746 1.75533 32.4717 2.734L3.1552 28.8319C1.85224 30.1368 1.52651 32.0941 2.82946 33.399C4.13242 34.7039 6.08685 35.0301 7.3898 33.7252L8.36702 32.4203V63.7378C8.36702 65.6951 9.66997 67 11.6244 67H57.2278C59.1823 67 60.4852 65.6951 60.4852 63.7378V32.4203L61.4624 33.399C62.7654 34.7039 64.7198 34.3777 66.0228 33.0728C67.3257 32.0941 67.3257 29.8105 66.0228 28.8319ZM40.9409 44.1644H37.6835V47.4266C37.6835 49.3839 36.3806 50.6888 34.4261 50.6888C32.4717 50.6888 31.1687 49.3839 31.1687 47.4266V44.1644H27.9113C25.9569 44.1644 24.654 42.8595 24.654 40.9021C24.654 38.9448 25.9569 37.6399 27.9113 37.6399H31.1687V34.3777C31.1687 32.4203 32.4717 31.1154 34.4261 31.1154C36.3806 31.1154 37.6835 32.4203 37.6835 34.3777V37.6399H40.9409C42.8953 37.6399 44.1983 38.9448 44.1983 40.9021C44.1983 42.8595 42.8953 44.1644 40.9409 44.1644Z" fill="#2ACF10" stroke="#2ACF10" stroke-width="2.66667"/>
</svg>
