<svg width="41" height="41" viewBox="0 0 41 41" fill="none" xmlns="http://www.w3.org/2000/svg">
<path d="M14.6667 16.6111L26.3333 28.2778M26.3333 16.6111L14.6667 28.2778M10.7778 3V6.88889M30.2222 3V6.88889M9.22222 38H31.7778C33.9557 38 35.0448 38 35.8767 37.5761C36.6084 37.2034 37.2034 36.6084 37.5761 35.8767C38 35.0448 38 33.9557 38 31.7778V13.1111C38 10.9331 38 9.84413 37.5761 9.01226C37.2034 8.28051 36.6084 7.68559 35.8767 7.31276C35.0448 6.88889 33.9557 6.88889 31.7778 6.88889H9.22222C7.04425 6.88889 5.95524 6.88889 5.12337 7.31276C4.39162 7.68559 3.7967 8.28051 3.42387 9.01226C3 9.84413 3 10.9331 3 13.1111V31.7778C3 33.9557 3 35.0448 3.42387 35.8767C3.7967 36.6084 4.39162 37.2034 5.12337 37.5761C5.95524 38 7.04423 38 9.22222 38Z" stroke="white" stroke-width="5.33333" stroke-linecap="round" stroke-linejoin="round"/>
</svg>
