<svg width="60" height="60" viewBox="0 0 60 60" fill="none" xmlns="http://www.w3.org/2000/svg">
<path d="M43.6365 29.9997C43.6365 28.4935 42.4155 27.2725 40.9092 27.2725H19.091C17.5848 27.2725 16.3638 28.4935 16.3638 29.9997C16.3638 31.506 17.5848 32.727 19.091 32.727H40.9092C42.4155 32.727 43.6365 31.506 43.6365 29.9997Z" fill="#FE0000"/>
<path fill-rule="evenodd" clip-rule="evenodd" d="M30 60C46.5685 60 60 46.5685 60 30C60 13.4315 46.5685 0 30 0C13.4315 0 0 13.4315 0 30C0 46.5685 13.4315 60 30 60ZM30 54.5269C16.4542 54.5269 5.47317 43.5458 5.47317 30C5.47317 16.4542 16.4542 5.47317 30 5.47317C43.5458 5.47317 54.5269 16.4542 54.5269 30C54.5269 43.5458 43.5458 54.5269 30 54.5269Z" fill="#FE0000"/>
</svg>
