<svg width="64" height="64" viewBox="0 0 64 64" fill="none" xmlns="http://www.w3.org/2000/svg">
<path d="M61.9663 29.3512C61.9663 44.0285 50.0202 57.7754 33.6994 61.7974C32.5889 62.0675 31.3775 62.0675 30.267 61.7974C13.9461 57.7754 2 44.0285 2 29.3512V16.1745C2 13.7132 4.0864 10.9219 6.67754 9.99141L25.4213 3.14807C29.6276 1.61731 34.3724 1.61731 38.5788 3.14807L57.3225 9.99141C59.88 10.9219 62 13.7132 62 16.1745L61.9663 29.3512Z" stroke="#FE0000" stroke-width="4" stroke-linecap="round" stroke-linejoin="round"/>
<path d="M31.9831 33.4943C35.7002 33.4943 38.7134 30.8067 38.7134 27.4913C38.7134 24.1759 35.7002 21.4883 31.9831 21.4883C28.266 21.4883 25.2529 24.1759 25.2529 27.4913C25.2529 30.8067 28.266 33.4943 31.9831 33.4943Z" stroke="#FE0000" stroke-width="4" stroke-miterlimit="10" stroke-linecap="round" stroke-linejoin="round"/>
<path d="M31.9832 33.4941V42.4986" stroke="#FE0000" stroke-width="4" stroke-miterlimit="10" stroke-linecap="round" stroke-linejoin="round"/>
</svg>
