<svg width="66" height="66" viewBox="0 0 66 66" fill="none" xmlns="http://www.w3.org/2000/svg">
<path d="M23 26.3333L43 46.3333M43 26.3333L23 46.3333M16.3333 3V9.66667M49.6667 3V9.66667M13.6667 63H52.3333C56.067 63 57.934 63 59.36 62.2733C60.6143 61.6343 61.6343 60.6143 62.2733 59.36C63 57.934 63 56.067 63 52.3333V20.3333C63 16.5996 63 14.7328 62.2733 13.3067C61.6343 12.0523 60.6143 11.0324 59.36 10.3933C57.934 9.66667 56.067 9.66667 52.3333 9.66667H13.6667C9.933 9.66667 8.06613 9.66667 6.64007 10.3933C5.38563 11.0324 4.36577 12.0523 3.72663 13.3067C3 14.7328 3 16.5996 3 20.3333V52.3333C3 56.067 3 57.934 3.72663 59.36C4.36577 60.6143 5.38563 61.6343 6.64007 62.2733C8.06613 63 9.93297 63 13.6667 63Z" stroke="#FE0000" stroke-width="5.33333" stroke-linecap="round" stroke-linejoin="round"/>
</svg>
