<svg width="150" height="150" viewBox="0 0 150 150" fill="none" xmlns="http://www.w3.org/2000/svg">
<path d="M148.64 0.663128C147.14 -0.436897 144.992 -0.13689 143.867 1.3297L61.3307 108.266L29.6935 77.1314C28.3297 75.8314 26.182 75.8648 24.8866 77.198C23.5912 78.498 23.5912 80.5315 24.8866 81.8315L59.251 115.666C59.8989 116.299 60.751 116.632 61.6714 116.666H61.9102C62.8987 116.599 63.8192 116.099 64.399 115.332L149.322 5.32979C150.446 3.8632 150.139 1.76315 148.64 0.663128Z" fill="#2ACF10"/>
<path d="M132.958 66.6647C131.083 66.6647 129.548 68.1647 129.548 69.9982V143.333H6.81824V19.9971H95.3546C97.0591 19.9971 98.5933 18.7971 98.832 17.1636C99.1388 15.097 97.5024 13.3301 95.4569 13.3301H3.40928C1.53413 13.3301 0 14.8301 0 16.6636V146.667C0 148.5 1.53413 150 3.40928 150H132.958C134.833 150 136.367 148.5 136.367 146.667V69.9982C136.367 68.1647 134.833 66.6647 132.958 66.6647Z" fill="#2ACF10"/>
</svg>
